<?xml version="1.0" encoding="utf-8"?>
<!-- Generator: Adobe Illustrator 16.0.0, SVG Export Plug-In . SVG Version: 6.00 Build 0)  -->
<!DOCTYPE svg PUBLIC "-//W3C//DTD SVG 1.1//EN" "http://www.w3.org/Graphics/SVG/1.1/DTD/svg11.dtd">
<svg version="1.1" id="Layer_1" xmlns="http://www.w3.org/2000/svg" xmlns:xlink="http://www.w3.org/1999/xlink" x="0px" y="0px"
	 width="208.642px" height="152.341px" viewBox="0 0 208.642 152.341" enable-background="new 0 0 208.642 152.341"
	 xml:space="preserve">
<polygon points="36.841,80.608 36.841,100.688 30.813,100.688 30.813,80.608 18.755,80.608 18.755,75.729 48.899,75.729 
	48.899,80.608 "/>
<g>
	<defs>
		<rect id="SVGID_1_" width="208.642" height="152.341"/>
	</defs>
	<clipPath id="SVGID_2_">
		<use xlink:href="#SVGID_1_"  overflow="visible"/>
	</clipPath>
	<path clip-path="url(#SVGID_2_)" d="M76.749,86.227H59.937v-5.619h16.812V86.227z M84.536,100.688l-12.04-9.583h6.454
		c1.722,0,3.037-1.087,3.037-2.477V78.245c0-1.426-1.315-2.515-3.037-2.515H53.119v24.959h6.028v-9.583h5.356l11.145,9.583H84.536z"
		/>
	<rect x="89.663" y="75.729" clip-path="url(#SVGID_2_)" width="6.028" height="24.959"/>
	<path clip-path="url(#SVGID_2_)" d="M123.878,90.705h-11.812l6.107-10.439L123.878,90.705z M136.179,100.688l-14.98-24.959h-6.028
		l-15.407,24.959h7l2.853-5.293h16.708l2.857,5.293H136.179z"/>
	<path clip-path="url(#SVGID_2_)" fill="#0065A4" d="M195.615,2.815c-9.918,4.853-25.488,15.483-26.057,37.037
		c0,0-5.91-7.229-19.673-9.599c0,0,12.049-22.101,44.958-29.206c0,0,0.915-0.275,1.288,0.528
		C196.13,1.575,196.527,2.367,195.615,2.815"/>
	<path clip-path="url(#SVGID_2_)" fill="#0065A4" d="M146.538,151.004c10.686-9.076,20.081-21.612,26.448-36.422
		c15.493-36.041,7.053-71.833-18.852-79.946c-20.178-6.321-45.014,6.011-62.325,28.804c0,0-0.635,0.673,0.091,1.374
		c0,0,0.623,0.534,1.35-0.006c14.156-10.98,30.019-15.738,43.593-11.486c25.059,7.849,32.813,43.428,17.321,79.469
		c-2.61,6.069-5.717,11.762-9.196,17.002c0,0-0.606,0.707,0.194,1.372C145.162,151.165,145.919,151.649,146.538,151.004"/>
	<path clip-path="url(#SVGID_2_)" fill="#0065A4" d="M140.222,13.136c5.112,5.095,7.159,13.281,4.611,15.479
		c-2.636,2.274-11.06-0.039-16.089-5.207c-6.501-6.685-6.094-11.061-3.038-13.809C128.714,6.891,133.616,6.547,140.222,13.136"/>
	<path clip-path="url(#SVGID_2_)" fill="#808285" d="M13.299,115.063c0-0.647,0.011-0.968,0.035-1.475
		c0.022-0.322,0.022-0.365,0.033-0.461c0.068-0.548,0.33-0.775,0.876-0.775c0.273,0,0.511,0.087,0.659,0.227
		c0.172,0.172,0.217,0.355,0.251,1.009c0.022,0.409,0.034,0.752,0.034,1.119c0,0.227-0.011,0.548-0.022,1.086
		c-0.022,0.613-0.022,0.666-0.034,0.796c-0.069,0.688-0.319,0.957-0.887,0.957c-0.386,0-0.626-0.119-0.774-0.398
		c-0.103-0.204-0.125-0.41-0.147-1.076C13.299,115.706,13.299,115.448,13.299,115.063 M16.779,114.298
		c0-1.202-0.113-1.58-0.215-1.837c-0.341-0.806-1.104-1.205-2.321-1.205c-1.184,0-1.969,0.408-2.298,1.183
		c-0.181,0.44-0.25,1.075-0.25,2.516c0,1.301,0.057,1.956,0.205,2.364c0.308,0.893,1.092,1.321,2.377,1.321
		c0.797,0,1.411-0.192,1.832-0.57c0.442-0.385,0.58-0.793,0.647-1.814C16.779,115.911,16.779,114.685,16.779,114.298"/>
	<path clip-path="url(#SVGID_2_)" fill="#808285" d="M21.731,114.472v-2.033h0.682c0.445,0,0.57,0.042,0.705,0.227
		c0.138,0.161,0.218,0.451,0.218,0.774c0,0.752-0.263,1.032-0.968,1.032H21.731z M21.731,115.536h0.763
		c0.466,0,0.613,0.052,0.727,0.268c0.137,0.235,0.183,0.611,0.183,1.375v0.624c0,0.225,0.024,0.409,0.069,0.732h1.671
		c-0.09-0.292-0.113-0.389-0.125-0.711c-0.022-0.473-0.034-0.86-0.045-1.086c-0.022-0.772-0.103-1.075-0.41-1.387
		c-0.206-0.215-0.443-0.31-0.967-0.384c0.534-0.1,0.774-0.218,0.99-0.487c0.239-0.278,0.364-0.73,0.364-1.32
		c0-0.946-0.353-1.505-1.08-1.71c-0.24-0.076-0.433-0.085-1.252-0.085h-2.435v7.171h1.547V115.536z"/>
	<polygon clip-path="url(#SVGID_2_)" fill="#808285" points="32.997,112.494 31.29,112.494 31.29,118.535 29.686,118.535 
		29.686,112.494 27.958,112.494 27.958,111.364 32.997,111.364 	"/>
	<polygon clip-path="url(#SVGID_2_)" fill="#808285" points="40.858,118.535 39.256,118.535 39.256,115.373 37.583,115.373 
		37.583,118.535 35.979,118.535 35.979,111.364 37.583,111.364 37.583,114.245 39.256,114.245 39.256,111.364 40.858,111.364 	"/>
	<path clip-path="url(#SVGID_2_)" fill="#808285" d="M45.845,115.063c0-0.647,0.011-0.968,0.034-1.475
		c0.024-0.322,0.024-0.365,0.034-0.461c0.069-0.548,0.33-0.775,0.876-0.775c0.273,0,0.512,0.087,0.66,0.227
		c0.171,0.172,0.216,0.355,0.251,1.009c0.023,0.409,0.033,0.752,0.033,1.119c0,0.227-0.01,0.548-0.021,1.086
		c-0.024,0.613-0.024,0.666-0.034,0.796c-0.07,0.688-0.32,0.957-0.889,0.957c-0.387,0-0.626-0.119-0.774-0.398
		c-0.103-0.204-0.125-0.41-0.147-1.076C45.845,115.706,45.845,115.448,45.845,115.063 M49.325,114.298
		c0-1.202-0.114-1.58-0.216-1.837c-0.342-0.806-1.103-1.205-2.321-1.205c-1.184,0-1.969,0.408-2.297,1.183
		c-0.183,0.44-0.251,1.075-0.251,2.516c0,1.301,0.058,1.956,0.205,2.364c0.308,0.893,1.093,1.321,2.377,1.321
		c0.797,0,1.411-0.192,1.833-0.57c0.442-0.385,0.58-0.793,0.647-1.814C49.325,115.911,49.325,114.685,49.325,114.298"/>
	<path clip-path="url(#SVGID_2_)" fill="#808285" d="M54.276,114.588v-2.139h0.854c0.489,0,0.716,0.322,0.716,1.021
		c0,0.869-0.181,1.117-0.853,1.117H54.276z M54.276,115.696h0.956c0.899,0,1.411-0.172,1.775-0.569
		c0.296-0.324,0.455-0.914,0.455-1.623c0-0.753-0.193-1.311-0.613-1.7c-0.365-0.355-0.74-0.44-1.924-0.44h-2.195v7.171h1.547
		V115.696z"/>
	<path clip-path="url(#SVGID_2_)" fill="#808285" d="M62.935,115.814H61.4l0.466-1.72c0.034-0.13,0.193-0.892,0.193-0.892
		c0.068-0.324,0.08-0.41,0.159-0.84l0.136,0.828c0.022,0.173,0.147,0.731,0.183,0.903L62.935,115.814z M63.334,111.364h-2.049
		l-2.035,7.171h1.433l0.422-1.592h2.104l0.421,1.592h1.65L63.334,111.364z"/>
	<polygon clip-path="url(#SVGID_2_)" fill="#808285" points="69.854,114.266 72.038,114.266 72.038,115.395 69.854,115.395 
		69.854,117.406 72.266,117.406 72.266,118.535 68.251,118.535 68.251,111.364 72.141,111.364 72.141,112.494 69.854,112.494 	"/>
	<path clip-path="url(#SVGID_2_)" fill="#808285" d="M77.025,117.406v-4.913h0.707c0.75,0,0.966,0.269,1.035,1.322
		c0.022,0.419,0.01,1.193,0.01,1.375c0,0,0,1.076-0.01,1.215c-0.046,0.752-0.262,1-1.082,1H77.025z M75.421,111.364v7.171h2.673
		c0.944,0,1.672-0.345,1.99-0.948c0.229-0.419,0.319-1.064,0.319-2.322c0-0.698-0.034-1.449-0.103-1.945
		c-0.112-0.892-0.386-1.408-0.875-1.687c-0.364-0.218-0.739-0.27-1.888-0.27H75.421z"/>
	<rect x="83.785" y="111.364" clip-path="url(#SVGID_2_)" fill="#808285" width="1.605" height="7.171"/>
	<path clip-path="url(#SVGID_2_)" fill="#808285" d="M93.661,116.147c-0.01,0.935-0.067,1.299-0.26,1.677
		c-0.285,0.515-1.059,0.816-2.151,0.816c-1.286,0-2.036-0.428-2.298-1.3c-0.067-0.246-0.136-0.602-0.158-1.192v-0.591
		c-0.012-0.302,0-0.43,0-0.581c0-0.472,0.021-1.138,0.033-1.44c0.068-1.042,0.263-1.483,0.797-1.85
		c0.41-0.279,1.012-0.43,1.695-0.43c0.898,0,1.637,0.269,2.012,0.732c0.23,0.289,0.33,0.688,0.33,1.29v0.409h-1.569l-0.01-0.43
		c-0.023-0.624-0.262-0.905-0.786-0.905c-0.466,0-0.705,0.206-0.795,0.668c-0.034,0.161-0.068,0.43-0.091,0.89
		c-0.013,0.281,0,0.667,0,1.057c0,0.59-0.013,1.008,0.022,1.481c0.035,0.516,0.102,0.71,0.227,0.859
		c0.125,0.152,0.341,0.238,0.591,0.238c0.409,0,0.626-0.151,0.738-0.505c0.058-0.227,0.082-0.376,0.103-0.893H93.661z"/>
	<path clip-path="url(#SVGID_2_)" fill="#808285" d="M108.039,116.147c-0.011,0.935-0.067,1.299-0.261,1.677
		c-0.285,0.515-1.059,0.816-2.151,0.816c-1.285,0-2.037-0.428-2.297-1.3c-0.069-0.246-0.138-0.602-0.159-1.192v-0.591
		c-0.011-0.302,0-0.43,0-0.581c0-0.472,0.021-1.138,0.034-1.44c0.067-1.042,0.262-1.483,0.797-1.85
		c0.409-0.279,1.013-0.43,1.695-0.43c0.897,0,1.637,0.269,2.012,0.732c0.228,0.289,0.33,0.688,0.33,1.29v0.409h-1.57l-0.011-0.43
		c-0.023-0.624-0.261-0.905-0.784-0.905c-0.467,0-0.707,0.206-0.797,0.668c-0.033,0.161-0.067,0.43-0.091,0.89
		c-0.012,0.281,0,0.667,0,1.057c0,0.59-0.012,1.008,0.023,1.481c0.034,0.516,0.103,0.71,0.228,0.859
		c0.125,0.152,0.34,0.238,0.59,0.238c0.41,0,0.625-0.151,0.74-0.505c0.057-0.227,0.08-0.376,0.102-0.893H108.039z"/>
	<polygon clip-path="url(#SVGID_2_)" fill="#808285" points="112.877,114.266 115.062,114.266 115.062,115.395 112.877,115.395 
		112.877,117.406 115.287,117.406 115.287,118.535 111.272,118.535 111.272,111.364 115.162,111.364 115.162,112.494 
		112.877,112.494 	"/>
	<path clip-path="url(#SVGID_2_)" fill="#808285" d="M124.151,118.535h-2.388l-1.148-3.591l-0.363-1.324l-0.32-1.407l0.058,0.71
		l0.067,0.848c0.067,0.85,0.103,1.183,0.103,1.463v3.301h-1.547v-7.171h2.265l0.886,2.482c0,0,0.296,0.978,0.491,1.668
		c0.18,0.708,0.285,1.126,0.465,2.073c-0.057-0.785-0.102-1.074-0.102-1.699l-0.013-0.71v-3.814h1.546V118.535z"/>
	<polygon clip-path="url(#SVGID_2_)" fill="#808285" points="132.175,112.494 130.468,112.494 130.468,118.535 128.865,118.535 
		128.865,112.494 127.136,112.494 127.136,111.364 132.175,111.364 	"/>
	<polygon clip-path="url(#SVGID_2_)" fill="#808285" points="136.75,114.266 138.935,114.266 138.935,115.395 136.75,115.395 
		136.75,117.406 139.161,117.406 139.161,118.535 135.147,118.535 135.147,111.364 139.036,111.364 139.036,112.494 136.75,112.494 
			"/>
	<path clip-path="url(#SVGID_2_)" fill="#808285" d="M144.033,118.535h-1.546v-7.171h2.434c0.82,0,1.012,0.009,1.252,0.085
		c0.727,0.206,1.08,0.764,1.08,1.71c0,0.591-0.125,1.043-0.364,1.321c-0.215,0.269-0.455,0.387-0.989,0.487
		c0.522,0.074,0.761,0.169,0.965,0.384c0.307,0.312,0.387,0.615,0.41,1.386c0.012,0.227,0.022,0.614,0.045,1.087
		c0.013,0.322,0.035,0.419,0.126,0.711h-1.674c-0.045-0.323-0.066-0.508-0.066-0.732v-0.623c0-0.765-0.046-1.141-0.183-1.376
		c-0.114-0.216-0.263-0.268-0.729-0.268h-0.763V118.535z M144.672,114.472c0.705,0,0.965-0.28,0.965-1.032
		c0-0.323-0.079-0.613-0.215-0.774c-0.136-0.184-0.261-0.227-0.705-0.227h-0.684v2.033H144.672z"/>
	<rect x="98.06" y="106.586" clip-path="url(#SVGID_2_)" fill="#808285" width="0.858" height="16.692"/>
	<path clip-path="url(#SVGID_2_)" d="M129.72,75.96c1.224,0,2.198,0.941,2.198,2.116c0,1.194-0.975,2.125-2.208,2.125
		c-1.225,0-2.22-0.93-2.22-2.125c0-1.175,0.995-2.116,2.22-2.116H129.72z M129.71,76.29c-0.985,0-1.792,0.799-1.792,1.787
		c0,1.005,0.808,1.795,1.802,1.795c0.995,0.01,1.791-0.79,1.791-1.787c0-0.996-0.796-1.795-1.791-1.795H129.71z M129.292,79.309
		h-0.399v-2.36c0.21-0.028,0.409-0.057,0.708-0.057c0.377,0,0.627,0.076,0.776,0.178c0.149,0.104,0.229,0.265,0.229,0.49
		c0,0.31-0.217,0.497-0.487,0.573v0.019c0.219,0.038,0.367,0.227,0.417,0.574c0.06,0.368,0.12,0.508,0.16,0.583h-0.417
		c-0.06-0.076-0.12-0.291-0.169-0.603c-0.06-0.301-0.219-0.413-0.538-0.413h-0.279V79.309z M129.292,78.002h0.289
		c0.327,0,0.607-0.113,0.607-0.405c0-0.208-0.16-0.414-0.607-0.414c-0.13,0-0.219,0.009-0.289,0.019V78.002z"/>
</g>
</svg>
