<?xml version="1.0" encoding="utf-8"?>
<!-- Generator: Adobe Illustrator 16.0.0, SVG Export Plug-In . SVG Version: 6.00 Build 0)  -->
<!DOCTYPE svg PUBLIC "-//W3C//DTD SVG 1.1//EN" "http://www.w3.org/Graphics/SVG/1.1/DTD/svg11.dtd">
<svg version="1.1" id="Layer_1" xmlns="http://www.w3.org/2000/svg" xmlns:xlink="http://www.w3.org/1999/xlink" x="0px" y="0px"
	 width="117.5px" height="90.795px" viewBox="0 0 117.5 90.795" enable-background="new 0 0 117.5 90.795" xml:space="preserve">
<polygon fill="#FFFFFF" points="20.748,48.042 20.748,60.01 17.353,60.01 17.353,48.042 10.562,48.042 10.562,45.135 27.539,45.135
	27.539,48.042 "/>
<g>
	<path fill="#FFFFFF" d="M43.222,51.391h-9.468v-3.349h9.468V51.391z M47.608,60.01l-6.78-5.711h3.635c0.97,0,1.71-0.648,1.71-1.476
		v-6.189c0-0.85-0.741-1.499-1.71-1.499H29.915V60.01h3.395v-5.711h3.017l6.276,5.711H47.608z"/>
	<rect x="50.495" y="45.135" fill="#FFFFFF" width="3.395" height="14.875"/>
	<path fill="#FFFFFF" d="M69.764,54.06h-6.652l3.439-6.222L69.764,54.06z M76.691,60.01l-8.436-14.875h-3.395L56.184,60.01h3.942
		l1.607-3.155h9.409l1.609,3.155H76.691z"/>
	<path fill="#FFFFFF" d="M110.164,1.678c-5.585,2.893-14.354,9.229-14.674,22.074c0,0-3.329-4.308-11.079-5.721
		c0,0,6.786-13.172,25.318-17.407c0,0,0.516-0.165,0.725,0.314C110.454,0.939,110.678,1.411,110.164,1.678"/>
	<path fill="#FFFFFF" d="M82.525,89.999c6.018-5.41,11.309-12.881,14.895-21.708c8.725-21.48,3.972-42.812-10.617-47.648
		c-11.364-3.767-25.351,3.583-35.1,17.167c0,0-0.357,0.401,0.051,0.819c0,0,0.351,0.318,0.76-0.003
		c7.973-6.544,16.906-9.38,24.55-6.846c14.112,4.678,18.479,25.883,9.754,47.364c-1.47,3.617-3.22,7.01-5.179,10.133
		c0,0-0.341,0.422,0.109,0.818C81.75,90.094,82.177,90.383,82.525,89.999"/>
	<path fill="#FFFFFF" d="M78.968,7.829c2.879,3.037,4.032,7.916,2.597,9.226c-1.484,1.355-6.228-0.023-9.061-3.103
		c-3.662-3.984-3.432-6.592-1.711-8.23C72.487,4.107,75.248,3.902,78.968,7.829"/>
	<path fill="#FFFFFF" d="M7.489,68.578c0-0.386,0.006-0.577,0.02-0.879c0.013-0.192,0.013-0.217,0.019-0.275
		c0.038-0.327,0.186-0.462,0.494-0.462c0.154,0,0.288,0.052,0.371,0.135c0.097,0.103,0.122,0.212,0.141,0.602
		c0.013,0.244,0.019,0.449,0.019,0.667c0,0.135-0.006,0.326-0.013,0.647c-0.013,0.365-0.013,0.397-0.019,0.475
		c-0.039,0.409-0.18,0.57-0.5,0.57c-0.218,0-0.353-0.071-0.436-0.237c-0.058-0.122-0.071-0.244-0.083-0.641
		C7.489,68.96,7.489,68.807,7.489,68.578 M9.45,68.122c0-0.717-0.063-0.942-0.121-1.095c-0.192-0.48-0.622-0.718-1.307-0.718
		c-0.667,0-1.108,0.243-1.294,0.705c-0.102,0.263-0.141,0.641-0.141,1.499c0,0.776,0.032,1.166,0.115,1.409
		c0.173,0.532,0.615,0.788,1.339,0.788c0.449,0,0.794-0.115,1.032-0.34c0.249-0.229,0.327-0.473,0.365-1.081
		C9.45,69.083,9.45,68.353,9.45,68.122"/>
	<path fill="#FFFFFF" d="M12.238,68.225v-1.211h0.384c0.25,0,0.321,0.025,0.397,0.135c0.077,0.096,0.123,0.269,0.123,0.461
		c0,0.448-0.148,0.615-0.545,0.615H12.238z M12.238,68.859h0.429c0.263,0,0.346,0.031,0.41,0.16c0.078,0.14,0.103,0.364,0.103,0.82
		v0.372c0,0.134,0.013,0.244,0.039,0.437h0.941c-0.051-0.174-0.063-0.232-0.07-0.424c-0.013-0.282-0.019-0.512-0.025-0.647
		c-0.013-0.46-0.058-0.641-0.231-0.827c-0.115-0.128-0.249-0.185-0.544-0.229c0.3-0.06,0.436-0.129,0.557-0.29
		c0.135-0.166,0.205-0.435,0.205-0.787c0-0.564-0.199-0.896-0.608-1.019c-0.135-0.045-0.244-0.051-0.706-0.051h-1.371v4.274h0.872
		V68.859z"/>
	<polygon fill="#FFFFFF" points="18.583,67.046 17.621,67.046 17.621,70.647 16.718,70.647 16.718,67.046 15.745,67.046
		15.745,66.373 18.583,66.373 	"/>
	<polygon fill="#FFFFFF" points="23.01,70.647 22.107,70.647 22.107,68.762 21.166,68.762 21.166,70.647 20.262,70.647
		20.262,66.373 21.166,66.373 21.166,68.09 22.107,68.09 22.107,66.373 23.01,66.373 	"/>
	<path fill="#FFFFFF" d="M25.818,68.578c0-0.386,0.006-0.577,0.019-0.879c0.014-0.192,0.014-0.217,0.02-0.275
		c0.039-0.327,0.186-0.462,0.493-0.462c0.154,0,0.289,0.052,0.372,0.135c0.096,0.103,0.122,0.212,0.142,0.602
		c0.013,0.244,0.018,0.449,0.018,0.667c0,0.135-0.005,0.326-0.012,0.647c-0.013,0.365-0.013,0.397-0.019,0.475
		c-0.04,0.409-0.18,0.57-0.5,0.57c-0.218,0-0.353-0.071-0.436-0.237c-0.058-0.122-0.07-0.244-0.083-0.641
		C25.818,68.96,25.818,68.807,25.818,68.578 M27.778,68.122c0-0.717-0.064-0.942-0.122-1.095c-0.192-0.48-0.621-0.718-1.307-0.718
		c-0.667,0-1.108,0.243-1.294,0.705c-0.103,0.263-0.141,0.641-0.141,1.499c0,0.776,0.032,1.166,0.115,1.409
		c0.173,0.532,0.615,0.788,1.339,0.788c0.449,0,0.794-0.115,1.032-0.34c0.249-0.229,0.327-0.473,0.365-1.081
		C27.778,69.083,27.778,68.353,27.778,68.122"/>
	<path fill="#FFFFFF" d="M30.566,68.295V67.02h0.48c0.275,0,0.403,0.192,0.403,0.609c0,0.518-0.102,0.666-0.48,0.666H30.566z
		 M30.566,68.955h0.539c0.506,0,0.794-0.103,1-0.339c0.167-0.193,0.256-0.545,0.256-0.967c0-0.449-0.109-0.781-0.345-1.013
		c-0.206-0.212-0.417-0.263-1.083-0.263h-1.237v4.274h0.872V68.955z"/>
	<path fill="#FFFFFF" d="M35.443,69.025h-0.865L34.841,68c0.019-0.078,0.109-0.532,0.109-0.532c0.038-0.192,0.045-0.244,0.089-0.5
		l0.077,0.493c0.013,0.104,0.083,0.436,0.103,0.539L35.443,69.025z M35.668,66.373h-1.154l-1.146,4.274h0.807l0.238-0.949h1.185
		l0.237,0.949h0.929L35.668,66.373z"/>
	<polygon fill="#FFFFFF" points="39.34,68.103 40.569,68.103 40.569,68.775 39.34,68.775 39.34,69.974 40.698,69.974 40.698,70.647
		38.437,70.647 38.437,66.373 40.627,66.373 40.627,67.046 39.34,67.046 	"/>
	<path fill="#FFFFFF" d="M43.378,69.974v-2.928h0.397c0.423,0,0.544,0.161,0.583,0.789c0.013,0.25,0.005,0.71,0.005,0.819
		c0,0,0,0.641-0.005,0.724c-0.026,0.448-0.147,0.596-0.609,0.596H43.378z M42.475,66.373v4.274h1.506
		c0.531,0,0.941-0.206,1.121-0.565c0.128-0.25,0.179-0.635,0.179-1.384c0-0.416-0.019-0.864-0.058-1.159
		c-0.063-0.532-0.217-0.839-0.494-1.005c-0.205-0.129-0.416-0.161-1.062-0.161H42.475z"/>
	<rect x="47.185" y="66.373" fill="#FFFFFF" width="0.904" height="4.274"/>
	<path fill="#FFFFFF" d="M52.747,69.224c-0.005,0.558-0.038,0.774-0.146,1c-0.16,0.307-0.596,0.486-1.211,0.486
		c-0.725,0-1.147-0.255-1.294-0.775c-0.038-0.146-0.077-0.359-0.089-0.711v-0.352c-0.007-0.181,0-0.256,0-0.347
		c0-0.281,0.012-0.678,0.018-0.858c0.039-0.621,0.148-0.884,0.449-1.103c0.231-0.166,0.57-0.256,0.955-0.256
		c0.506,0,0.922,0.16,1.133,0.436c0.129,0.172,0.186,0.41,0.186,0.769v0.244h-0.884l-0.006-0.256
		c-0.013-0.372-0.148-0.54-0.442-0.54c-0.263,0-0.397,0.123-0.448,0.398c-0.019,0.096-0.039,0.256-0.051,0.531
		c-0.007,0.167,0,0.397,0,0.629c0,0.352-0.007,0.601,0.013,0.883c0.02,0.308,0.058,0.423,0.128,0.512
		c0.07,0.091,0.192,0.142,0.333,0.142c0.23,0,0.353-0.09,0.416-0.301c0.033-0.135,0.046-0.225,0.058-0.532H52.747z"/>
	<path fill="#FFFFFF" d="M60.844,69.224c-0.006,0.558-0.038,0.774-0.147,1c-0.161,0.307-0.596,0.486-1.211,0.486
		c-0.724,0-1.147-0.255-1.293-0.775c-0.039-0.146-0.078-0.359-0.089-0.711v-0.352c-0.007-0.181,0-0.256,0-0.347
		c0-0.281,0.012-0.678,0.019-0.858c0.038-0.621,0.148-0.884,0.449-1.103c0.23-0.166,0.57-0.256,0.955-0.256
		c0.505,0,0.922,0.16,1.133,0.436c0.128,0.172,0.186,0.41,0.186,0.769v0.244H59.96l-0.006-0.256c-0.014-0.372-0.147-0.54-0.441-0.54
		c-0.263,0-0.398,0.123-0.449,0.398c-0.019,0.096-0.038,0.256-0.051,0.531c-0.006,0.167,0,0.397,0,0.629
		c0,0.352-0.006,0.601,0.013,0.883c0.019,0.308,0.058,0.423,0.128,0.512c0.071,0.091,0.192,0.142,0.333,0.142
		c0.231,0,0.352-0.09,0.417-0.301c0.033-0.135,0.045-0.225,0.058-0.532H60.844z"/>
	<polygon fill="#FFFFFF" points="63.568,68.103 64.799,68.103 64.799,68.775 63.568,68.775 63.568,69.974 64.926,69.974
		64.926,70.647 62.665,70.647 62.665,66.373 64.855,66.373 64.855,67.046 63.568,67.046 	"/>
	<path fill="#FFFFFF" d="M69.918,70.647h-1.345l-0.647-2.141l-0.204-0.789l-0.18-0.838l0.033,0.423l0.038,0.505
		c0.038,0.507,0.058,0.705,0.058,0.872v1.967h-0.871v-4.274h1.275l0.499,1.479c0,0,0.167,0.583,0.277,0.994
		c0.101,0.422,0.16,0.671,0.262,1.235c-0.032-0.468-0.057-0.64-0.057-1.012l-0.007-0.423v-2.273h0.871V70.647z"/>
	<polygon fill="#FFFFFF" points="74.437,67.046 73.475,67.046 73.475,70.647 72.573,70.647 72.573,67.046 71.599,67.046
		71.599,66.373 74.437,66.373 	"/>
	<polygon fill="#FFFFFF" points="77.013,68.103 78.244,68.103 78.244,68.775 77.013,68.775 77.013,69.974 78.371,69.974
		78.371,70.647 76.11,70.647 76.11,66.373 78.301,66.373 78.301,67.046 77.013,67.046 	"/>
	<path fill="#FFFFFF" d="M81.115,70.647h-0.871v-4.274h1.371c0.462,0,0.57,0.006,0.706,0.051c0.409,0.123,0.608,0.455,0.608,1.019
		c0,0.352-0.07,0.622-0.205,0.787c-0.121,0.161-0.256,0.231-0.557,0.29c0.294,0.044,0.429,0.101,0.543,0.229
		c0.173,0.186,0.218,0.366,0.231,0.827c0.007,0.135,0.013,0.366,0.025,0.647c0.007,0.192,0.02,0.25,0.071,0.424h-0.942
		c-0.025-0.193-0.037-0.303-0.037-0.437v-0.372c0-0.456-0.026-0.68-0.103-0.82c-0.064-0.129-0.147-0.16-0.41-0.16h-0.429V70.647z
		 M81.474,68.225c0.397,0,0.543-0.167,0.543-0.615c0-0.192-0.044-0.365-0.121-0.461c-0.077-0.11-0.147-0.135-0.397-0.135h-0.385
		v1.211H81.474z"/>
	<rect x="55.224" y="63.525" fill="#FFFFFF" width="0.483" height="9.948"/>
	<path fill="#FFFFFF" d="M73.054,45.272c0.689,0,1.238,0.561,1.238,1.261c0,0.712-0.549,1.266-1.244,1.266
		c-0.689,0-1.25-0.554-1.25-1.266c0-0.701,0.561-1.261,1.25-1.261H73.054z M73.048,45.469c-0.555,0-1.009,0.477-1.009,1.065
		c0,0.599,0.455,1.07,1.015,1.07c0.56,0.006,1.008-0.471,1.008-1.065c0-0.593-0.448-1.07-1.008-1.07H73.048z M72.812,47.268h-0.224
		v-1.407c0.118-0.017,0.23-0.034,0.398-0.034c0.213,0,0.354,0.045,0.438,0.106c0.083,0.062,0.128,0.158,0.128,0.292
		c0,0.185-0.122,0.296-0.274,0.341v0.011c0.124,0.022,0.207,0.135,0.235,0.342c0.034,0.219,0.067,0.303,0.09,0.348h-0.235
		c-0.034-0.045-0.068-0.173-0.096-0.359c-0.034-0.18-0.124-0.247-0.303-0.247h-0.157V47.268z M72.812,46.489h0.163
		c0.185,0,0.342-0.067,0.342-0.241c0-0.124-0.09-0.247-0.342-0.247c-0.073,0-0.123,0.005-0.163,0.011V46.489z"/>
</g>
</svg>
